<?xml version="1.0" encoding="utf-8"?>
<!-- Generator: Adobe Illustrator 22.1.0, SVG Export Plug-In . SVG Version: 6.00 Build 0)  -->
<svg version="1.1" id="圖層_1" xmlns="http://www.w3.org/2000/svg" xmlns:xlink="http://www.w3.org/1999/xlink" x="0px" y="0px"
	 viewBox="0 0 278 64" style="enable-background:new 0 0 278 64;" xml:space="preserve">
<style type="text/css">
	.st0{fill:none;}
	.st1{fill:#FFFFFF;stroke:#FFFFFF;stroke-width:4;stroke-linecap:round;stroke-linejoin:round;stroke-miterlimit:10;}
	.st2{fill:#1A1A1A;}
	.st3{fill:#E60000;}
	.st4{fill:#DF0012;}
</style>
<g id="背景">
	<g id="Layer_4">
		<rect class="st0" width="278" height="64"/>
	</g>
</g>
<g id="鼎捷軟件-白">
	<g>
		<path class="st1" d="M117.7,44.6h8.6V30.3c0.2-2,1.6-2.8,1.6-2.8l-5.5-0.4v16h-8.6v16.4l3.8-1.2V49h3.8h0.1v10.5l3.9-1.2V49h2.9
			h0.1c0-1.4,0.6-1.5,0.6-1.5h-11.3L117.7,44.6L117.7,44.6z"/>
		<path class="st1" d="M102.1,27.8L98,27.1c0,0,0.2,6.2,0.2,7.8v2.6c0,2-0.3,7.1-0.3,7.1h9.5v2.9c0,0-7.8,0-8,0
			c-1.5,0-2.4-0.1-3.7-0.2c0.3,0.7,0.6,1.1,0.5,1.8c0.7-0.1,1.2,0,2.4,0h1.2c0,0,0,1.2,0,2.2c0,3.9-1.6,7.3-2.8,9
			c0,0,1.5-0.8,2.5-1.4c3.7-2.3,4.2-5.3,4.2-7.2c0-0.7,0-2.5,0-2.5h3.8v10.5l3.8-1.2V43.1h-9.1L102.1,27.8L102.1,27.8z"/>
		<path class="st1" d="M120.6,26.4h-16.5v14.9h16.5V26.4z M116.7,39.8H108v-3h8.7V39.8z M116.7,35.3H108v-3.1h8.7V35.3z M116.7,30.8
			H108v-3h8.7V30.8z"/>
		<path class="st1" d="M235.4,45.8v-9.4h7.3h0.1c0-1.4,0.6-1.4,0.6-1.4h-7.9v-5.8c0,0-0.3-2,0.7-3l-4.8-0.7c0,0,0.3,2.2,0.2,6.9V35
			h-4.2c0.1-0.3,0.4-1.2,0.6-2.3c0.2-0.7,0.8-2.9,1.9-3.3c0,0-3.9-1-5.1-1.3c-0.3,2.9-0.8,5.4-1.3,7.5c-0.5,1.9-1.4,5-2.5,7
			c-0.2,0.3-0.2,0.5,0.9-0.3c1.3-0.8,3.8-4.1,4.8-5.9h5v9.4h-4.4c-0.8,0-5.3-0.1-6.1-0.2c0.4,0.7,0.5,1.1,0.4,1.8
			c0.6-0.1,4.8-0.1,5.7-0.1l0,0h4.4v12.3l3.8-1.2V47.2h8.6h0.1c0-1.4,0.6-1.4,0.6-1.4H235.4z"/>
		<path class="st1" d="M222.6,27.4c0,0.1-4.2-1.7-5.5-2.1c-0.7,4.1-1.5,7.4-2.5,10.4c-1,2.8-2.7,7.3-5,10.1c0,0,0.6,0,1.1-0.4
			c1.1-0.8,3.3-2.6,4.6-4.6v18.7l3.9-1.2V35c0,0,0.7-2.4,1.2-4.1C220.9,29.2,221.5,27.2,222.6,27.4z"/>
		<path class="st1" d="M158.1,55.4v-4.6h7.2c0-1.4,0.6-1.4,0.6-1.4h-7.8v-4.1h6.7v-4.2h2.9c0-1.4,0.6-1.4,0.6-1.4h-3.5V38
			c0.1-1.9,1.3-2.5,1.3-2.5h-8v-3.7h7.8c0-1.4,0.6-1.4,0.6-1.4h-8.4c0-0.4,0-1.3,0-1.4c0-2.4,1.4-3.2,1.4-3.2s-4.6-0.5-5.8-0.6
			c0.2,1.6,0.3,3.2,0.4,5.1h-1.6l0,0c-0.8,0-5.6-0.1-6.5-0.2c0.4,0.7,0.5,1.1,0.4,1.8c0.1,0,6-0.1,6-0.1h1.6v3.7h-1
			c-0.8,0-4.1-0.1-5-0.2c0.3,0.7,0.5,1.1,0.4,1.8c0.6-0.1,4.5-0.1,4.5-0.1h1.2v2.8h-1.6l0,0c-0.7,0-6.4-0.2-6.5-0.2
			c0.4,0.7,0.5,1.1,0.4,1.8c0.6-0.1,6-0.1,6-0.1h1.6v2.8h-1.7c-0.8,0-4.1-0.1-4.9-0.2c0.3,0.7,0.5,1.1,0.4,1.8
			c0.6-0.1,4.5-0.1,4.5-0.1c0.1,0,1.7,0,1.7,0v9.3c-0.5-0.2-2.4-1.4-3.3-3c0.1-0.5,0.3-1,0.5-1.6c0-0.3,0.8-1.5,0.8-1.5
			s-2.8-1.6-4-2c-0.3,2.8-0.8,5.2-1.5,7.1c-0.7,1.9-1.3,3.7-2.5,5.4c0,0,1.9-0.9,2.8-1.6c2.3-1.8,3.2-4.4,3.2-4.4s1.1,2.6,4.6,4.7
			c3.8,2,8.7,2,10.8,2.1c0-0.2,0-0.4,0-0.6c0-2.5,1.1-4.7,2.9-6c-4.9,2.1-5.9,2.1-8,2.2h-2.2L158.1,55.4L158.1,55.4z M158.1,36.9
			h2.8v2.8h-2.8V36.9z M158.1,41.1h2.8v2.8h-2.8V41.1z"/>
		<path class="st1" d="M136.6,52c0.1,0.1,0.2,0.2,0.3,0.1C137,52,137,52,137,52c1.3-1.9,8.1-12.1,10.1-15l0,0c0,0,0,0,0-0.1
			c0,0-0.1-0.1-0.1,0l0,0l0,0c-0.9,0.8-2.2,1.9-3.8,2.9V35h4.2c0.1-0.8,0.6-1.5,0.6-1.5h-4.8c0,0,0-1.9,0-3.1c0-1.9,1.1-3.1,1.1-3.1
			l-4.9-1.1v7.2c-1.6,0-5.1-0.1-5.8-0.2c0.4,0.7,0.5,1,0.4,1.7c0.1,0.1,5.4,0,5.4,0v6.2c-2.4,0.5-5.2,0.3-8.1-1.4l0,0c0,0,0,0-0.1,0
			c0,0-0.1,0.1,0,0.1l0,0C131.9,41.4,135.7,50,136.6,52L136.6,52z"/>
		<path class="st1" d="M139.3,54c0,0.4-0.3,0.6-0.9,0.6c-0.6,0-1.6-0.1-3-0.3v0.5c1.9,1,2.8,2.2,2.9,3.2c0.1,0.6,0.2,0.9,0.5,0.9
			c1,0,2-0.3,2.9-1c0.9-0.6,1.3-1.6,1.3-3v-9.4l-3.8,5.5v3H139.3z"/>
		<path class="st1" d="M188.7,42.2c0.6-0.4,1.9-2.3,3.2-4.3c0.8-1.2,1.3-3.8,1.8-5.2h7.4c-0.2,2.1-2.1,10-2.1,10
			c0.1,0.1,0.2,0,0.3-0.1c2.7-2.1,4.5-5.8,5.7-7.5c0.8-1,1.9-1.1,1.9-1.1s-4.1-2.8-4.9-2.8h-0.3H194c0-0.1,0.1-1.4,0.8-2.6
			c0.8-1.5,1.8-2.2,1.8-2.3c-1.3-0.3-4-0.9-5.3-1.4c-0.3,4.1-0.6,5.9-0.9,8.7c-0.4,3.6-1.1,5.9-1.9,8.3
			C188.6,42.1,188.4,42.4,188.7,42.2z"/>
		<path class="st1" d="M188.7,44.6c0,0-3.5,1.4-4.5,1.7v-4.9h3.2h0.1c0-1.3,0.6-1.4,0.6-1.4h-3.8v-2.4c0-0.3,0.2-2.1,1-2.2
			c-1.3-0.2-3.4-0.4-4.7-0.5c-0.1,0-0.2,0.1-0.2,0.2c0,0.1,0,0.2,0,0.4V40h-2.5c0.7-2.7,1.3-6,1.9-8.8h8.6h0.1
			c0-1.3,0.6-1.4,0.6-1.4h-9c0-0.1,0.1-0.5,0.2-0.9c0.1-0.7,0.7-1.8,1.6-1.7c0-0.1-5-1.7-5-1.6c0,1.1-0.2,2-0.6,4.2h-1
			c0,0-2.3,0-3.2-0.1c0.4,0.7,0.5,1,0.4,1.6c0.1,0,0.7,0,0.9,0c0,0,1.6,0,2.6,0c-0.4,3.1-1.4,6.8-2.7,9c0,0.1-0.1,0.3,0.1,0.5
			c0.9,0.7,1.7,1.4,2.5,2.1c0.3,0.2,0.5,0.3,0.6,0.1l0.8-1.5h3.1v5.9c-2,0.4-5.4,1.5-7.6,1.7c-0.1,0-0.2,0-0.3,0.1
			c1.2,1.1,2,3.2,2.1,5l5.8-3.9l-0.1,9.1l3.7-1.1l0.1-10.1l4.4-3L188.7,44.6z"/>
		<path class="st1" d="M197.9,45.6c-0.2-0.6-0.4-1.2-0.6-1.9c-0.3-4.3,1.1-6.5,1.1-6.5s-3.8-0.8-4.9-0.9c0.1,1.2,0.4,2.5,0.4,4.3
			c-0.1,3.2-0.4,5-1,7.4c-0.8,2.7-1.9,4.8-3.3,6.4c-1,1.2-3.2,3.4-3.9,3.8c-0.1,0.1-0.2,0.2-0.2,0.3l0,0l0,0v0.1
			c0,0,2.9-0.6,4.3-1.5c0.7-0.3,1.2-0.7,1.6-1c1.9-1.7,3.3-3.7,4.2-6c0.4-0.9,0.7-2,1-3.4c0,0.2,0.1,0.3,0.1,0.5
			c1,6.3,3.9,10.9,5.4,12.4c1.2-1.5,3-2.5,5-2.5c0.2,0,0.3,0,0.5,0c0.3-0.1,0.4-0.1,0.4-0.2C205.5,56.1,199.9,51.3,197.9,45.6z"/>
	</g>
</g>
<g id="鼎捷軟件_1_">
	<g>
		<path class="st2" d="M117.7,47.5v-2.9h8.6V30.3c0.2-2,1.6-2.8,1.6-2.8l-5.5-0.4v16h-8.6v16.4l3.8-1.2V49h3.9h0.1v10.5l3.9-1.2V49
			h2.9h0.1c0-1.4,0.6-1.5,0.6-1.5H117.7z M120.6,26.4h-16.5v14.9h16.5V26.4z M116.7,39.8H108v-3h8.7V39.8z M116.7,35.3H108v-3.1h8.7
			V35.3z M116.7,30.8H108v-3h8.7V30.8z M102.1,43.1V27.8L98,27.1c0,0,0.2,6.2,0.2,7.8v2.6c0,2-0.3,7.1-0.3,7.1h9.5v2.9
			c0,0-7.8,0-8,0c-1.5,0-2.4-0.1-3.7-0.2c0.3,0.7,0.6,1.1,0.5,1.8c0.7-0.1,1.2,0,2.4,0h1.2c0,0,0,1.2,0,2.2c0,3.9-1.6,7.3-2.8,9
			c0,0,1.5-0.8,2.5-1.4c3.7-2.3,4.2-5.3,4.2-7.2c0-0.7,0-2.5,0-2.5h3.8v10.5l3.8-1.2V43.1H102.1z"/>
		<path class="st2" d="M222.6,27.4c0,0.1-4.2-1.7-5.5-2.1c-0.7,4.1-1.5,7.4-2.5,10.4c-1,2.8-2.7,7.3-5,10.1c0,0,0.6,0,1.1-0.4
			c1.1-0.8,3.3-2.6,4.6-4.6v18.7l3.9-1.2V35c0,0,0.7-2.4,1.2-4.1C220.9,29.2,221.5,27.2,222.6,27.4z M235.4,45.8v-9.4h7.3h0.1
			c0-1.4,0.6-1.4,0.6-1.4h-7.9v-5.8c0,0-0.3-2,0.7-3l-4.8-0.7c0,0,0.3,2.2,0.2,6.9V35h-4.2c0.1-0.3,0.4-1.2,0.6-2.3
			c0.2-0.7,0.8-2.9,1.9-3.3c0,0-3.9-1-5.1-1.3c-0.3,2.9-0.8,5.4-1.3,7.5c-0.5,1.9-1.4,5-2.5,7c-0.2,0.3-0.2,0.5,0.9-0.3
			c1.3-0.8,3.8-4.1,4.8-5.9h5v9.4h-4.4v0.1l0,0v-0.1c-0.8,0-5.3-0.1-6.1-0.2c0.4,0.7,0.5,1.1,0.4,1.8c0.6-0.1,4.8-0.1,5.7-0.1v-0.1
			l0,0v0.1h4.4v12.3l3.8-1.2V47.2h8.6h0.1c0-1.4,0.6-1.4,0.6-1.4H235.4z"/>
		<path class="st3" d="M136.6,52c0.1,0.1,0.2,0.2,0.3,0.1C137,52,137,52,137,52c1.3-1.9,8.1-12.1,10.1-15l0,0c0,0,0,0,0-0.1
			c0,0-0.1-0.1-0.1,0l0,0l0,0c-0.9,0.8-2.2,1.9-3.8,2.9V35h4.2c0.1-0.8,0.6-1.5,0.6-1.5h-4.8c0,0,0-1.9,0-3.1c0-1.9,1.1-3.1,1.1-3.1
			l-4.9-1.1v7.2c-1.6,0-5.1-0.1-5.8-0.2c0.4,0.7,0.5,1,0.4,1.7c0.1,0.1,5.4,0,5.4,0v6.2c-2.4,0.5-5.2,0.3-8.1-1.4l0,0c0,0,0,0-0.1,0
			c0,0-0.1,0.1,0,0.1l0,0C131.9,41.4,135.7,50,136.6,52L136.6,52z M139.3,54c0,0.4-0.3,0.6-0.9,0.6c-0.6,0-1.6-0.1-3-0.3v0.5
			c1.9,1,2.8,2.2,2.9,3.2c0.1,0.6,0.2,0.9,0.5,0.9c1,0,2-0.3,2.9-1c0.9-0.6,1.3-1.6,1.3-3v-9.4l-3.8,5.5v3H139.3z M168.5,53.2
			c-4.9,2.1-5.9,2.1-8,2.2h-2.4v-4.6h7.2c0-1.4,0.6-1.4,0.6-1.4h-7.8v-4.1h6.7v-4.2h2.9c0-1.4,0.6-1.4,0.6-1.4h-3.5V38
			c0.1-1.9,1.3-2.5,1.3-2.5h-8v-3.7h7.8c0-1.4,0.6-1.4,0.6-1.4h-8.4c0-0.4,0-1.3,0-1.4c0-2.4,1.4-3.2,1.4-3.2s-4.6-0.5-5.8-0.6
			c0.2,1.6,0.3,3.2,0.4,5.1h-1.6l0,0c-0.8,0-5.6-0.1-6.5-0.2c0.4,0.7,0.5,1.1,0.4,1.8c0.1,0,6-0.1,6-0.1h1.6v3.7h-1l0,0l0,0l0,0
			c-0.8,0-4.1-0.1-5-0.2c0.3,0.7,0.5,1.1,0.4,1.8c0.6-0.1,4.5-0.1,4.5-0.1h1.2v2.8h-1.6l0,0c-0.7,0-6.4-0.2-6.5-0.2
			c0.4,0.7,0.5,1.1,0.4,1.8c0.6-0.1,6-0.1,6-0.1h1.6v2.8h-1.7l0,0c-0.8,0-4.1-0.1-4.9-0.2c0.3,0.7,0.5,1.1,0.4,1.8
			c0.6-0.1,4.5-0.1,4.5-0.1c0.1,0,1.7,0,1.7,0v9.3c-0.5-0.2-2.4-1.4-3.3-3c0.1-0.5,0.3-1,0.5-1.6c0-0.3,0.8-1.5,0.8-1.5
			s-2.8-1.6-4-2c-0.3,2.8-0.8,5.2-1.5,7.1c-0.7,1.9-1.3,3.7-2.5,5.4c0,0,1.9-0.9,2.8-1.6c2.3-1.8,3.2-4.4,3.2-4.4s1.1,2.6,4.6,4.7
			c3.8,2,8.7,2,10.8,2.1c0-0.2,0-0.4,0-0.6C165.6,56.7,166.7,54.5,168.5,53.2z M158.1,36.9h2.8v2.8h-2.8V36.9z M158.1,41.1h2.8v2.8
			h-2.8V41.1z"/>
		<path class="st2" d="M197.9,45.6c-0.2-0.6-0.4-1.2-0.6-1.9c-0.3-4.3,1.1-6.5,1.1-6.5s-3.8-0.8-4.9-0.9c0.1,1.2,0.4,2.5,0.4,4.3
			c-0.1,3.2-0.4,5-1,7.4c-0.8,2.7-1.9,4.8-3.3,6.4c-1,1.2-3.2,3.4-3.9,3.8c-0.1,0.1-0.2,0.2-0.2,0.3l0,0l0,0v0.1
			c0,0,2.9-0.6,4.3-1.5c0.7-0.3,1.2-0.7,1.6-1c1.9-1.7,3.3-3.7,4.2-6c0.4-0.9,0.7-2,1-3.4c0,0.2,0.1,0.3,0.1,0.5
			c1,6.3,3.9,10.9,5.4,12.4c1.2-1.5,3-2.5,5-2.5c0.2,0,0.3,0,0.5,0c0.3-0.1,0.4-0.1,0.4-0.2C205.5,56.1,199.9,51.3,197.9,45.6z
			 M188.7,42.2c0.6-0.4,1.9-2.3,3.2-4.3c0.8-1.2,1.3-3.8,1.8-5.2h7.4c-0.2,2.1-2.1,10-2.1,10c0.1,0.1,0.2,0,0.3-0.1
			c2.7-2.1,4.5-5.8,5.7-7.5c0.8-1,1.9-1.1,1.9-1.1s-4.1-2.8-4.9-2.8h-0.3l0,0H194c0-0.1,0.1-1.4,0.8-2.6c0.8-1.5,1.8-2.2,1.8-2.3
			c-1.3-0.3-4-0.9-5.3-1.4c-0.3,4.1-0.6,5.9-0.9,8.7c-0.4,3.6-1.1,5.9-1.9,8.3C188.6,42.1,188.4,42.4,188.7,42.2z M188.7,44.6
			c0,0-3.5,1.4-4.5,1.7v-4.9h3.2h0.1c0-1.3,0.6-1.4,0.6-1.4h-3.8v-2.4c0-0.3,0.2-2.1,1-2.2c-1.3-0.2-3.4-0.4-4.7-0.5
			c-0.1,0-0.2,0.1-0.2,0.2c0,0.1,0,0.2,0,0.4V40h-2.5c0.7-2.7,1.3-6,1.9-8.8h8.6h0.1c0-1.3,0.6-1.4,0.6-1.4h-9
			c0-0.1,0.1-0.5,0.2-0.9c0.1-0.7,0.7-1.8,1.6-1.7c0-0.1-5-1.7-5-1.6c0,1.1-0.2,2-0.6,4.2h-1c0,0-2.3,0-3.2-0.1
			c0.4,0.7,0.5,1,0.4,1.6c0.1,0,0.7,0,0.9,0c0,0,1.6,0,2.6,0c-0.4,3.1-1.4,6.8-2.7,9c0,0.1-0.1,0.3,0.1,0.5c0.9,0.7,1.7,1.4,2.5,2.1
			c0.3,0.2,0.5,0.3,0.6,0.1l0.8-1.5h3.1v5.9c-2,0.4-5.4,1.5-7.6,1.7c-0.1,0-0.2,0-0.3,0.1c1.2,1.1,2,3.2,2.1,5l5.8-3.9l-0.1,9.1
			l3.7-1.1l0.1-10.1l4.4-3L188.7,44.6z"/>
	</g>
</g>
<g id="圖層_5">
	<g>
		<path class="st1" d="M68.8,5.2L50.2,31.9l-6.1,0.5c-4.6,0-8.9-1.3-13-3.8l-1.2-0.3c-1.3-0.2-2,0.5-2,2l0.3,1.2l8.7,18.9l-5.8,8.4
			l-0.3,0.3c-0.8,0.4-1.2,0.3-1.2-0.3l-20.3-43l0.3-0.3h0.3C21.3,22,33.1,23.2,45.4,19c7.7-2.7,15.2-7.3,22.6-13.9h0.3
			c0-0.2,0.1-0.2,0.3,0L68.8,5.2"/>
		<path class="st1" d="M68.8,23.8L44.2,59.1l-0.3,0.3L43,58.8v0.3L30,30.7v-0.3h0.3c12.1,6.9,24.8,4.7,38.1-6.6v-0.3L68.8,23.8"/>
	</g>
</g>
<g id="圖層_4">
	<g>
		<path class="st4" d="M68.8,5.2L50.2,31.9l-6.1,0.5c-4.6,0-8.9-1.3-13-3.8l-1.2-0.3c-1.3-0.2-2,0.5-2,2l0.3,1.2l8.7,18.9l-5.8,8.4
			l-0.3,0.3c-0.8,0.4-1.2,0.3-1.2-0.3l-20.3-43l0.3-0.3h0.3C21.3,22,33.1,23.2,45.4,19c7.7-2.7,15.2-7.3,22.6-13.9h0.3
			c0-0.2,0.1-0.2,0.3,0L68.8,5.2"/>
		<path class="st4" d="M68.8,23.8L44.2,59.1l-0.3,0.3L43,58.8v0.3L30,30.7v-0.3h0.3c12.1,6.9,24.8,4.7,38.1-6.6v-0.3L68.8,23.8"/>
	</g>
</g>
</svg>
