<?xml version="1.0" encoding="utf-8"?>
<!-- Generator: Adobe Illustrator 22.1.0, SVG Export Plug-In . SVG Version: 6.00 Build 0)  -->
<svg version="1.1" id="圖層_1" xmlns="http://www.w3.org/2000/svg" xmlns:xlink="http://www.w3.org/1999/xlink" x="0px" y="0px"
	 viewBox="0 0 278 64" style="enable-background:new 0 0 278 64;" xml:space="preserve">
<style type="text/css">
	.st0{fill:none;}
	.st1{fill:#FFFFFF;stroke:#FFFFFF;stroke-width:4;stroke-linecap:round;stroke-linejoin:round;stroke-miterlimit:10;}
	.st2{fill:#1A1A1A;}
	.st3{fill:#E60000;}
	.st4{fill:#DF0012;}
</style>
<g id="背景">
	<g id="Layer_4">
		<rect class="st0" width="278" height="64"/>
	</g>
</g>
<g id="鼎新電腦_拷貝">
	<g>
		<path class="st1" d="M117.2,44.5h8.4V30.1c0.2-2,1.6-2.9,1.6-2.9l-5.4-0.4V43h-8.4v16.5l3.8-1.2v-9.4h3.8h0.1v10.6l3.8-1.2v-9.4
			h2.8h0.1c0-1.4,0.6-1.5,0.6-1.5h-11v-2.9H117.2z"/>
		<path class="st1" d="M120,26.2h-16.1v15H120V26.2z M116.2,39.7h-8.5v-3h8.5V39.7z M116.2,35.2h-8.5v-3.1h8.5V35.2z M116.2,30.6
			h-8.5v-3.1h8.5V30.6z"/>
		<path class="st1" d="M102,27.6l-4-0.7c0,0,0.2,6.2,0.2,7.9v2.6c0,2-0.3,7.1-0.3,7.1h9.3v2.9c0,0-7.6,0-7.8,0
			c-1.5,0-2.4-0.1-3.6-0.2c0.3,0.7,0.6,1.1,0.5,1.8c0.7-0.1,1.2,0,2.4,0h1.2c0,0,0,1.2,0,2.2c0,3.9-1.5,7.3-2.7,9
			c0,0,1.4-0.8,2.4-1.5c3.6-2.3,4.1-5.3,4.1-7.2c0-0.7,0-2.5,0-2.5h3.7v10.6l3.8-1.2V43H102V27.6z"/>
		<path class="st1" d="M225,32.3c0,0.1,0,0.2,0,0.3c0.1,0.1,0.2,0.2,0.3,0.3c0.2,0.2,0.4,0.5,0.6,0.8c0.8,1.1,1.5,2.6,2,4.2
			c0.3,0.7,0.5,1.5,0.6,2.2c0.2,0.4,0.3,0.4,0.6-0.1c0.6-0.8,1.3-1.8,2.1-2.6c0.2-0.3,0.2-0.3,0-0.6c-0.7-1.4-2.4-2.8-4-3.7
			c1.6-1.1,2.3-1.9,3.6-4.2c0.9-1.5,1.6-1.5,1.6-1.8c-0.8-0.2-3.1-1.3-3.8-1.7c-0.2-0.1-0.4,0.1-0.4,0.3c0,0.2-0.1,0.4-0.1,0.7
			c-0.3,2.6-0.8,4.7-1.5,6.4c-0.6-0.3-1-0.5-1.2-0.5C225.2,32.1,225.1,32.2,225,32.3z"/>
		<path class="st1" d="M230.8,32.6c0,0.1,0,0.1,0,0.2c1.6,1.2,3.2,3.5,4.2,6.5c0.2,0.5,0.3,0.9,0.4,1.4c0.1,0.2,0.2,0.2,0.4-0.2
			c0.6-1.2,1.2-2.2,2.1-3.3c0.2-0.2,0.1-0.4-0.1-0.6c-1.2-1.7-2.9-2.8-4.9-3.5c1.6-1,2.7-2.3,3.9-4.5c0.7-1,1.6-1.2,1.6-1.4
			c-0.4-0.2-3-1.4-3.8-1.8c-0.3-0.1-0.3,0-0.4,0.2c-0.5,3.4-1.1,5.8-1.9,7.3c-0.7-0.2-1.1-0.4-1.3-0.4
			C231,32.4,230.9,32.5,230.8,32.6z"/>
		<path class="st1" d="M223.9,54.8c1.4-0.5,2.7-1.3,4.1-2.5c0.1-0.1,0.3-0.4,0.4-0.5c0.6,0.7,1.5,2,2.1,3.2c0.1,0.1,0.2,0.3,0.4,0.1
			c0.5-0.7,1.3-1.9,2-2.6c0.1-0.1,0.3-0.2,0-0.5c-0.4-0.6-1.3-1.3-2.6-2.2c0.5-0.7,0.7-0.9,1.2-1.6c0.8-1.1,1.3-0.8,1.4-1
			c-0.3-0.2-2.8-1.5-3.7-2c-0.2,0-0.3,0.1-0.3,0.2c-0.3,1.1-0.6,2.1-0.9,2.9c-1.2-0.7-2.4-1.2-3.7-1.7c-0.1,0-0.2,0-0.2,0.1
			c-0.1,0.1,0,0.2,0.1,0.3c1.2,1,2.2,2,3.1,3.1c-0.6,1.4-1.7,2.8-3.3,4.4C223.9,54.6,223.9,54.7,223.9,54.8
			C223.6,54.9,223.7,54.9,223.9,54.8z"/>
		<path class="st1" d="M228.7,43.3c1.2-1.3,1.8-0.7,1.8-1c0.1-0.3-2.8-1.7-3.8-2.1c-0.2,0-0.3,0.1-0.3,0.2c-0.1,0.9-0.3,1.8-0.6,2.8
			h-7c0.2,1.2,0.3,1.6,0.3,2.2v14.3l3.5-1.2v-1h11.6v2.2l3.5-1.2v-1V45.9c0.1-2,1.2-2.6,1.2-2.6S228.7,43.3,228.7,43.3z M234.2,56.1
			h-11.6V44.7h11.6V56.1z"/>
		<path class="st1" d="M222,40.3c0,0,1.6-2.1,2.6-3c0.2-0.1,0.2-0.3,0-0.6c-0.6-1.1-2-2.6-3.4-3.6c1.4-1.2,2.2-2.2,3.5-4.3
			c0.9-1.7,1.5-1.4,1.5-1.7c-0.9-0.4-3.1-1.3-3.8-1.7c-0.3-0.1-0.4,0.1-0.4,0.3c0,0.2-0.1,0.4-0.1,0.7c-0.2,2.2-0.7,4.3-1.4,6.2
			c-0.6-0.4-0.9-0.6-1.1-0.6c-0.2-0.1-0.3,0-0.4,0.1c0,0.1,0,0.1,0,0.2c1.3,1.6,2.2,4.2,2.5,7.4C221.4,40.4,221.7,40.7,222,40.3z"/>
		<path class="st1" d="M207.1,26.5c0.2,0.8,0.2,1.9,0.2,2.5c0,0.4,0,10,0,10c-0.1,9.5-0.7,16.2-2,20.2c0,0.2,0,0.3,0.1,0.4
			c0,0,0,0,0.1-0.1c3.1-3.6,4.8-8.2,5.1-14.1h3.9v9.1c0,0.3-0.1,0.6-0.4,0.9c-0.2,0.2-1.7,0.3-3.5,0.3c-0.3,0-0.5,0.1-0.6,0.3
			c0,0.2,0.1,0.4,0.3,0.5c0.9,0.2,1.6,0.6,2.1,1.3c0.4,0.6,0.6,1.2,0.7,1.7c0,0.2,0.1,0.3,0.3,0.3c1,0,1.9-0.2,2.9-0.8
			s1.4-1.6,1.5-3V29.1c0-2,1.4-2.6,1.4-2.6H207.1z M214.4,38.3V44h-3.9c0.1-1.5,0.1-3.1,0.1-5v-1.9v-0.6h3.8L214.4,38.3L214.4,38.3z
			 M214.4,35h-3.8l0.2-7.1h3.8L214.4,35z"/>
		<path class="st1" d="M205.3,59.6L205.3,59.6C205.3,59.7,205.4,59.7,205.3,59.6z"/>
		<path class="st1" d="M188.4,38.5c1.8,0,4.6,0,7.7,0V37h-6.6c0,0-0.5,0-1.1-0.1L188.4,38.5L188.4,38.5z"/>
		<path class="st1" d="M173.8,38.5L173.8,38.5L173.8,38.5c1.8,0.1,4.6,0.1,7.7,0.1V37H175c0,0-0.5,0-1.1-0.1v0.5l0,0L173.8,38.5
			L173.8,38.5z"/>
		<path class="st1" d="M196,34.8v-1.5h-6.6c0,0-0.5,0-1.1,0v1.6C190.1,34.8,192.9,34.8,196,34.8z"/>
		<path class="st1" d="M186.9,30.2v-2.7c6.5,0,12.6,0,12.6,0c0.1-0.9,0.6-1.5,0.6-1.5h-24.3c0,0-3.9-0.1-4.4-0.2
			c0.3,0.7,0.4,1.1,0.4,1.7c0,0,5.4,0,11.4,0v2.7h-10.4c0,0,0-0.4-0.1-0.5c0-0.1,0-0.2-0.1-0.3c0-0.1,0-0.3-0.1-0.4
			c0-0.1,0-0.1,0-0.1s0,0,0-0.1c-0.1-0.3-0.2-0.3-0.3-0.4c0,0-0.4,2.8-3,4.7c-0.1,0-0.1,0.1-0.2,0.1c-0.5,0.3-1,0.7-1.6,1
			c0,0-0.3,0.1,0,0.5c0.2,0.4,1.6,2.7,1.6,2.7s4.1-0.2,4-5.7c1.2,0,5.5,0,10.2,0v8l3.7-1.2v-6.8h11.4c-0.3,2.2-0.9,6.2-0.9,6.2
			c0.1,0.1,0.2,0,0.3-0.1c0.7-0.3,1.7-1.8,2.8-3.1c1.4-2,3.5-1.9,3.5-1.9s-3.9-2.6-4.6-2.7L186.9,30.2L186.9,30.2z"/>
		<path class="st1" d="M181.6,34.8v-1.5H175c0,0-0.5,0-1.1,0v0.3l0,0v1l0,0v0.2C175.7,34.8,178.5,34.8,181.6,34.8z"/>
		<path class="st1" d="M200.3,51.5c-0.2,0-0.3,0.4-0.3,0.6c-0.4,1.9-1.1,3.1-2.5,3.5c-0.8,0.3-2.2,0.2-7.5,0.2
			c-1.3-0.1-2.2-0.2-2.5-0.4c-0.4-0.3-0.6-0.6-0.6-1v-1.6h10.6v-9.6c0.1-2,1.2-2.8,1.2-2.8h-26.5c0.3,1.9,0.3,1.6,0.3,3.1v5.3
			c0,1.2-0.1,3.9-0.1,3.9h10.8v3c0,0.9,0.4,1.7,1.3,2.5c1,0.9,3.6,1.4,8.1,1.4c4.1,0,6.9-0.3,8.3-0.8c1.3-0.4,2.5-1.2,2-1.7
			C199.9,54.5,200.6,51.5,200.3,51.5z M183.1,51.2h-7.3v-3.9h7.3V51.2z M183.1,45.8h-7.3v-3.9h7.3V45.8z M186.9,41.9h7.2v3.9h-7.2
			V41.9z M186.9,47.4h7.2v3.9h-7.2V47.4z"/>
		<path class="st1" d="M148.5,30.4c0.1-0.8,0.6-1.5,0.6-1.5h-6.5l0,0c0,0,0,0,0-0.1c0-1.9,1-2.6,1-2.6l-4.8-1.1v3.8
			c-1.5,0-5.4-0.1-6.2-0.2c0.3,0.7,0.4,1.7,0.4,1.7S148.5,30.4,148.5,30.4z"/>
		<path class="st1" d="M154.8,38c0,0-0.6,0-1.4,0c0-0.9,0-1.4,0-2.1c0,0,0-4.5,0-4.6c3.8-0.3,5.2-0.5,9.2-1.2
			c2.5-0.5,2.6-0.1,3.2-0.3c-0.1-0.4-2.2-3.1-3-3.9c-0.7-0.8-0.8-0.4-1.7,0c-0.8,0.3-7.8,3.6-7.8,3.6s-2.5-1.1-3.5-1.6
			c-0.2,0-0.3,0.1-0.3,0.3c0,0.8,0,1.1,0,2.3V36v3.6c0,5.2-1,14.1-2.9,18.6c-0.6,1.1-0.8,1.7-0.7,1.8s0.2,0.1,0.5,0
			c3.3-2.6,5.3-6.8,6.2-12.5c0.3-2.2,0.6-5.4,0.7-7.9c1.2,0,2.5,0,4.1,0v20.1l3.7-1.2v-19c2.7,0,4,0,4,0c0.2-1.3,0.7-2.2,0.9-2.3
			c-0.7,0.1-3.5,0.6-4.1,0.6C160.4,37.8,154.8,38,154.8,38z"/>
		<path class="st1" d="M147.8,38.5h-4.7c-0.4,0.5-0.8,1-1.2,1.5c2.9,0,5.3,0,5.3,0C147.3,39.1,147.8,38.5,147.8,38.5z"/>
		<path class="st1" d="M139.3,40.6l0.1-0.1c1-1.3,6.4-7.9,7.9-9.8l0,0l0,0c0,0,0,0-0.1,0l0,0l0,0c-1.9,1.6-6.6,4.8-11.6,2.4l0,0l0,0
			c0,0-0.1,0.1,0,0.1l0,0c0.5,1,2.9,6.2,3.5,7.4C139.1,40.6,139.2,40.6,139.3,40.6z"/>
		<path class="st1" d="M137.1,40c-0.2-0.4-0.5-1-0.7-1.5c-0.9,0-3.7-0.1-4.1-0.2c0.3,0.7,0.4,1.1,0.4,1.7
			C132.8,40,134.7,40,137.1,40z"/>
		<path class="st1" d="M147.7,51.6c-1-1.5-4-3-5.7-3.6v-1.5c3,0,5.6,0,5.6,0c0.1-0.8,0.6-1.5,0.6-1.5H142v-0.3
			c0.1-2.2,1.3-2.6,1.3-2.6l-5-1v3.1v1h-1.5c0,0-3.9-0.1-4.4-0.2c0.4,0.7,0.4,1.1,0.4,1.7c0,0,1.4,0,3.3,0c-0.1,0.6-0.2,1.5-0.4,2.4
			c-1,4.5-3.9,8.2-5.5,10c0,0,1.6-0.7,2.7-1.3c3.4-1.7,4.8-4.3,5.3-6.5v8.5l3.7-1.2v-9.2c1.1,1.2,2.1,2.8,2.8,4.8
			c0.2,0.4,0.3,0.8,0.4,1.3c0.1,0.2,0.2,0.2,0.4-0.2c0.6-1.1,1.2-2,2.1-3.1C147.9,52,147.8,51.8,147.7,51.6z"/>
	</g>
</g>
<g id="鼎新電腦">
	<g>
		<path class="st2" d="M117.2,47.4v-2.9h8.4V30.1c0.2-2,1.6-2.9,1.6-2.9l-5.4-0.4V43h-8.4v16.5l3.8-1.2v-9.4h3.8h0.1v10.6l3.8-1.2
			v-9.4h2.8h0.1c0-1.4,0.6-1.5,0.6-1.5H117.2z M120,26.2h-16.1v15H120V26.2z M116.2,39.7h-8.5v-3h8.5V39.7z M116.2,35.2h-8.5v-3.1
			h8.5V35.2z M116.2,30.6h-8.5v-3.1h8.5V30.6z M102,43V27.6l-4-0.7c0,0,0.2,6.2,0.2,7.9v2.6c0,2-0.3,7.1-0.3,7.1h9.3v2.9
			c0,0-7.6,0-7.8,0c-1.5,0-2.4-0.1-3.6-0.2c0.3,0.7,0.6,1.1,0.5,1.8c0.7-0.1,1.2,0,2.4,0h1.2c0,0,0,1.2,0,2.2c0,3.9-1.5,7.3-2.7,9
			c0,0,1.4-0.8,2.4-1.5c3.6-2.3,4.1-5.3,4.1-7.2c0-0.7,0-2.5,0-2.5h3.7v10.6l3.8-1.2V43H102z"/>
		<path class="st2" d="M222,40.3c0,0,1.6-2.1,2.6-3c0.2-0.1,0.2-0.3,0-0.6c-0.6-1.1-2-2.6-3.4-3.6c1.4-1.2,2.2-2.2,3.5-4.3
			c0.9-1.7,1.5-1.4,1.5-1.7c-0.9-0.4-3.1-1.3-3.8-1.7c-0.3-0.1-0.4,0.1-0.4,0.3c0,0.2-0.1,0.4-0.1,0.7c-0.2,2.2-0.7,4.3-1.4,6.2
			c-0.6-0.4-0.9-0.6-1.1-0.6c-0.2-0.1-0.3,0-0.4,0.1c0,0.1,0,0.1,0,0.2c1.3,1.6,2.2,4.2,2.5,7.4C221.4,40.4,221.7,40.7,222,40.3z
			 M230.8,32.6c0,0.1,0,0.1,0,0.2c1.6,1.2,3.2,3.5,4.2,6.5c0.2,0.5,0.3,0.9,0.4,1.4c0.1,0.2,0.2,0.2,0.4-0.2
			c0.6-1.2,1.2-2.2,2.1-3.3c0.2-0.2,0.1-0.4-0.1-0.6c-1.2-1.7-2.9-2.8-4.9-3.5c1.6-1,2.7-2.3,3.9-4.5c0.7-1,1.6-1.2,1.6-1.4
			c-0.4-0.2-3-1.4-3.8-1.8c-0.3-0.1-0.3,0-0.4,0.2c-0.5,3.4-1.1,5.8-1.9,7.3c-0.7-0.2-1.1-0.4-1.3-0.4
			C231,32.4,230.9,32.5,230.8,32.6z M225,32.3c0,0.1,0,0.2,0,0.3c0.1,0.1,0.2,0.2,0.3,0.3c0.2,0.2,0.4,0.5,0.6,0.8
			c0.8,1.1,1.5,2.6,2,4.2c0.3,0.7,0.5,1.5,0.6,2.2c0.2,0.4,0.3,0.4,0.6-0.1c0.6-0.8,1.3-1.8,2.1-2.6c0.2-0.3,0.2-0.3,0-0.6
			c-0.7-1.4-2.4-2.8-4-3.7c1.6-1.1,2.3-1.9,3.6-4.2c0.9-1.5,1.6-1.5,1.6-1.8c-0.8-0.2-3.1-1.3-3.8-1.7c-0.2-0.1-0.4,0.1-0.4,0.3
			c0,0.2-0.1,0.4-0.1,0.7c-0.3,2.6-0.8,4.7-1.5,6.4c-0.6-0.3-1-0.5-1.2-0.5C225.2,32.1,225.1,32.2,225,32.3z M228.7,43.3
			c1.2-1.3,1.8-0.7,1.8-1c0.1-0.3-2.8-1.7-3.8-2.1c-0.2,0-0.3,0.1-0.3,0.2c-0.1,0.9-0.3,1.8-0.6,2.8h-7c0.2,1.2,0.3,1.6,0.3,2.2
			v14.3l3.5-1.2v-1h11.6v2.2l3.5-1.2v-1V45.9c0.1-2,1.2-2.6,1.2-2.6S228.7,43.3,228.7,43.3z M234.2,56.1h-11.6V44.7h11.6V56.1z
			 M223.9,54.8c1.4-0.5,2.7-1.3,4.1-2.5c0.1-0.1,0.3-0.4,0.4-0.5c0.6,0.7,1.5,2,2.1,3.2c0.1,0.1,0.2,0.3,0.4,0.1
			c0.5-0.7,1.3-1.9,2-2.6c0.1-0.1,0.3-0.2,0-0.5c-0.4-0.6-1.3-1.3-2.6-2.2c0.5-0.7,0.7-0.9,1.2-1.6c0.8-1.1,1.3-0.8,1.4-1
			c-0.3-0.2-2.8-1.5-3.7-2c-0.2,0-0.3,0.1-0.3,0.2c-0.3,1.1-0.6,2.1-0.9,2.9c-1.2-0.7-2.4-1.2-3.7-1.7c-0.1,0-0.2,0-0.2,0.1
			c-0.1,0.1,0,0.2,0.1,0.3c1.2,1,2.2,2,3.1,3.1c-0.6,1.4-1.7,2.8-3.3,4.4C223.9,54.6,223.9,54.7,223.9,54.8
			C223.6,54.9,223.7,54.9,223.9,54.8z M207.1,26.5c0.2,0.8,0.2,1.9,0.2,2.5c0,0.4,0,10,0,10c-0.1,9.5-0.7,16.2-2,20.2
			c0,0.2,0,0.3,0.1,0.4c0,0,0,0,0.1-0.1c3.1-3.6,4.8-8.2,5.1-14.1h3.9v9.1c0,0.3-0.1,0.6-0.4,0.9c-0.2,0.2-1.7,0.3-3.5,0.3
			c-0.3,0-0.5,0.1-0.6,0.3c0,0.2,0.1,0.4,0.3,0.5c0.9,0.2,1.6,0.6,2.1,1.3c0.4,0.6,0.6,1.2,0.7,1.7c0,0.2,0.1,0.3,0.3,0.3
			c1,0,1.9-0.2,2.9-0.8s1.4-1.6,1.5-3V29.1c0-2,1.4-2.6,1.4-2.6H207.1z M210.8,27.9h3.8l-0.2,7.1h-3.8L210.8,27.9z M214.4,44h-3.9
			c0.1-1.5,0.1-3.1,0.1-5v-1.9l0,0v-0.6h3.8v1.8l0,0L214.4,44L214.4,44z M205.3,59.6L205.3,59.6C205.3,59.7,205.4,59.7,205.3,59.6z"
			/>
		<path class="st2" d="M199.2,30.2L199.2,30.2h-12.3v-2.7c6.5,0,12.6,0,12.6,0c0.1-0.9,0.6-1.5,0.6-1.5h-24.3c0,0-3.9-0.1-4.4-0.2
			c0.3,0.7,0.4,1.1,0.4,1.7c0,0,5.4,0,11.4,0v2.7h-10.4c0,0,0-0.4-0.1-0.5c0-0.1,0-0.2-0.1-0.3c0-0.1,0-0.3-0.1-0.4
			c0-0.1,0-0.1,0-0.1s0,0,0-0.1c-0.1-0.3-0.2-0.3-0.3-0.4c0,0-0.4,2.8-3,4.7c-0.1,0-0.1,0.1-0.2,0.1c-0.5,0.3-1,0.7-1.6,1
			c0,0-0.3,0.1,0,0.5c0.2,0.4,1.6,2.7,1.6,2.7s4.1-0.2,4-5.7c1.2,0,5.5,0,10.2,0v8l3.7-1.2v-6.8h11.4c-0.3,2.2-0.9,6.2-0.9,6.2
			c0.1,0.1,0.2,0,0.3-0.1c0.7-0.3,1.7-1.8,2.8-3.1c1.4-2,3.5-1.9,3.5-1.9S199.9,30.2,199.2,30.2z M188.4,38.5c1.8,0,4.6,0,7.7,0V37
			h-6.6c0,0-0.5,0-1.1-0.1L188.4,38.5L188.4,38.5z M196,34.8v-1.5h-6.6c0,0-0.5,0-1.1,0v1.6C190.1,34.8,192.9,34.8,196,34.8z
			 M200.3,51.5c-0.2,0-0.3,0.4-0.3,0.6c-0.4,1.9-1.1,3.1-2.5,3.5c-0.8,0.3-2.2,0.2-7.5,0.2c-1.3-0.1-2.2-0.2-2.5-0.4
			c-0.4-0.3-0.6-0.6-0.6-1v-1.6h10.6v-9.6c0.1-2,1.2-2.8,1.2-2.8h-26.5c0.3,1.9,0.3,1.6,0.3,3.1v5.3c0,1.2-0.1,3.9-0.1,3.9h10.8v3
			c0,0.9,0.4,1.7,1.3,2.5c1,0.9,3.6,1.4,8.1,1.4c4.1,0,6.9-0.3,8.3-0.8c1.3-0.4,2.5-1.2,2-1.7C199.9,54.5,200.6,51.5,200.3,51.5z
			 M183.1,51.2h-7.3v-3.9h7.3V51.2z M183.1,45.8h-7.3v-3.9h7.3V45.8z M186.9,41.9h7.2v3.9h-7.2V41.9z M186.9,47.4h7.2v3.9h-7.2V47.4
			z M181.6,34.8v-1.5H175c0,0-0.5,0-1.1,0v0.3l0,0v1l0,0v0.2C175.7,34.8,178.5,34.8,181.6,34.8z M173.8,38.5L173.8,38.5L173.8,38.5
			c1.8,0.1,4.6,0.1,7.7,0.1V37H175c0,0-0.5,0-1.1-0.1v0.5l0,0L173.8,38.5L173.8,38.5z"/>
		<path class="st3" d="M147.7,51.6c-1-1.5-4-3-5.7-3.6v-1.5c3,0,5.6,0,5.6,0c0.1-0.8,0.6-1.5,0.6-1.5H142v-0.3
			c0.1-2.2,1.3-2.6,1.3-2.6l-5-1v3.1v1h-1.5c0,0-3.9-0.1-4.4-0.2c0.4,0.7,0.4,1.1,0.4,1.7c0,0,1.4,0,3.3,0c-0.1,0.6-0.2,1.5-0.4,2.4
			c-1,4.5-3.9,8.2-5.5,10c0,0,1.6-0.7,2.7-1.3c3.4-1.7,4.8-4.3,5.3-6.5v8.5l3.7-1.2v-9.2c1.1,1.2,2.1,2.8,2.8,4.8
			c0.2,0.4,0.3,0.8,0.4,1.3c0.1,0.2,0.2,0.2,0.4-0.2c0.6-1.1,1.2-2,2.1-3.1C147.9,52,147.8,51.8,147.7,51.6z M162,37.8
			c-1.7,0-7.2,0.2-7.2,0.2s-0.6,0-1.4,0c0-0.9,0-1.4,0-2.1c0,0,0-4.5,0-4.6c3.8-0.3,5.2-0.5,9.2-1.2c2.5-0.5,2.6-0.1,3.2-0.3
			c-0.1-0.4-2.2-3.1-3-3.9c-0.7-0.8-0.8-0.4-1.7,0c-0.8,0.3-7.8,3.6-7.8,3.6s-2.5-1.1-3.5-1.6c-0.2,0-0.3,0.1-0.3,0.3
			c0,0.8,0,1.1,0,2.3V36v3.6c0,5.2-1,14.1-2.9,18.6c-0.6,1.1-0.8,1.7-0.7,1.8s0.2,0.1,0.5,0c3.3-2.6,5.3-6.8,6.2-12.5
			c0.3-2.2,0.6-5.4,0.7-7.9c1.2,0,2.5,0,4.1,0v20.1l3.7-1.2v-19c2.7,0,4,0,4,0c0.2-1.3,0.7-2.2,0.9-2.3
			C165.4,37.3,162.6,37.8,162,37.8z M147.8,38.5h-4.7c-0.4,0.5-0.8,1-1.2,1.5c2.9,0,5.3,0,5.3,0C147.3,39.1,147.8,38.5,147.8,38.5z
			 M137.1,40c-0.2-0.4-0.5-1-0.7-1.5c-0.9,0-3.7-0.1-4.1-0.2c0.3,0.7,0.4,1.1,0.4,1.7C132.8,40,134.7,40,137.1,40z M148.5,30.4
			c0.1-0.8,0.6-1.5,0.6-1.5h-6.5c0-0.1,0,0.2,0-0.1c0-1.9,1-2.6,1-2.6l-4.8-1.1v3.8c-1.5,0-5.4-0.1-6.2-0.2c0.3,0.7,0.4,1.7,0.4,1.7
			S148.5,30.4,148.5,30.4z M139.1,40.5L139.1,40.5L139.1,40.5L139.1,40.5z M139.3,40.6l0.1-0.1c1-1.3,6.4-7.9,7.9-9.8l0,0l0,0
			c0,0,0,0-0.1,0l0,0l0,0c-1.9,1.6-6.6,4.8-11.6,2.4l0,0l0,0c0,0-0.1,0.1,0,0.1l0,0c0.5,1,2.9,6.2,3.5,7.4
			C139.1,40.6,139.2,40.6,139.3,40.6z"/>
	</g>
</g>
<g id="圖層_5">
	<g>
		<path class="st1" d="M68.8,5.2L50.2,31.9l-6.1,0.5c-4.6,0-8.9-1.3-13-3.8l-1.2-0.3c-1.3-0.2-2,0.5-2,2l0.3,1.2l8.7,18.9l-5.8,8.4
			l-0.3,0.3c-0.8,0.4-1.2,0.3-1.2-0.3l-20.3-43l0.3-0.3h0.3C21.3,22,33.1,23.2,45.4,19c7.7-2.7,15.2-7.3,22.6-13.9h0.3
			c0-0.2,0.1-0.2,0.3,0L68.8,5.2"/>
		<path class="st1" d="M68.8,23.8L44.2,59.1l-0.3,0.3L43,58.8v0.3L30,30.7v-0.3h0.3c12.1,6.9,24.8,4.7,38.1-6.6v-0.3L68.8,23.8"/>
	</g>
</g>
<g id="圖層_4">
	<g>
		<path class="st4" d="M68.8,5.2L50.2,31.9l-6.1,0.5c-4.6,0-8.9-1.3-13-3.8l-1.2-0.3c-1.3-0.2-2,0.5-2,2l0.3,1.2l8.7,18.9l-5.8,8.4
			l-0.3,0.3c-0.8,0.4-1.2,0.3-1.2-0.3l-20.3-43l0.3-0.3h0.3C21.3,22,33.1,23.2,45.4,19c7.7-2.7,15.2-7.3,22.6-13.9h0.3
			c0-0.2,0.1-0.2,0.3,0L68.8,5.2"/>
		<path class="st4" d="M68.8,23.8L44.2,59.1l-0.3,0.3L43,58.8v0.3L30,30.7v-0.3h0.3c12.1,6.9,24.8,4.7,38.1-6.6v-0.3L68.8,23.8"/>
	</g>
</g>
</svg>
