<?xml version="1.0" encoding="utf-8"?>
<!-- Generator: Adobe Illustrator 22.1.0, SVG Export Plug-In . SVG Version: 6.00 Build 0)  -->
<svg version="1.1" id="圖層_1" xmlns="http://www.w3.org/2000/svg" xmlns:xlink="http://www.w3.org/1999/xlink" x="0px" y="0px"
	 viewBox="0 0 278 64" style="enable-background:new 0 0 278 64;" xml:space="preserve">
<style type="text/css">
	.st0{fill:none;}
	.st1{fill:#FFFFFF;stroke:#FFFFFF;stroke-width:4;stroke-linecap:round;stroke-linejoin:round;stroke-miterlimit:10;}
	.st2{fill:#E60000;}
	.st3{fill:#DF0012;}
</style>
<g id="背景">
	<g id="Layer_4">
		<rect class="st0" width="278" height="64"/>
	</g>
</g>
<g id="英文_拷貝">
	<g>
		<path class="st1" d="M212.6,35.6c-3.8-1.7-5.6-2.9-5.7-4.7c-0.2-2.6,2.4-3.8,4.2-3.8s3.4,0.7,4.4,1.4h0.1l1.2-1.5
			c-1.4-1.1-5.4-2.7-10.4-1.5c-4.8,1.2-7.8,7.1-3.1,11.4c0.9,0.8,2.9,2,6.4,3.4c2.7,1.1,4.1,2.7,4,4.8c-0.2,4.8-6.2,4.6-6.2,4.6
			c-2.5-0.2-4.2-1.4-5.6-2.5l-0.1,2.5c5.1,3.1,10.2,1.8,12.7,0.6c3.5-1.7,4.7-4.7,4.5-7.6C218.9,39.7,216.8,37.7,212.6,35.6z"/>
		<path class="st1" d="M228.1,34c-3.4,0-6.9,1.3-6.9,6c0,2.7,0,3.2,0,5.8c0,4.1,3.5,5.8,6.9,5.8s6.9-2.1,6.9-5.8c0-2.6,0-3.1,0-5.8
			C235,35.3,231.5,34,228.1,34z M231.4,47.5c0,1.9-1.8,3-3.4,3c-1.6,0-3.3-1-3.3-3c0-1,0-8.2,0-9.2c0-2.5,1.8-3.2,3.3-3.2
			c1.6,0,3.4,1,3.4,3.2C231.4,39.3,231.4,46.5,231.4,47.5z"/>
		<path class="st1" d="M241.5,27.8c0.5-0.8,1.1-1.3,2-1.5c0.6-0.1,1,0,1-0.1l0.4-0.9l-0.1-0.1h-0.9c-1.8,0-6.4,0.1-6.4,8.8l0,0h-2.1
			l-0.1,0.1l-0.3,1l0.1,0.1h2.4v16.3l0.1,0.1h3.3l0.1-0.1V35.2h3.3l0.1-0.1l0.3-1l-0.1-0.1H241l-0.1-2.6v-0.3
			C241.1,29.3,241.3,28.1,241.5,27.8z"/>
		<path class="st1" d="M257.1,50.6l-1.2,0.1c-1.6,0-3.1-0.3-3.7-1c-0.6-0.5-0.9-1.4-0.9-2.9V35.2h5.5l0.1-0.1l0.3-1L257,34h-5.8
			v-8.9h-0.1l-3.4,3l-0.1,5.8V34h-2.1l-0.1,0.1l-0.3,1l0.1,0.1h2.4v9.2c0,1.8,0.3,3.2,0.9,4.1c1.6,2.1,3.5,3.1,5.7,3.1h2.3l0.1-0.1
			L257.1,50.6L257.1,50.6z"/>
		<path class="st1" d="M133.8,34c-3.9,0-7.7,1.7-7.7,7.4v2.2c0,8.2,5.8,8.1,10.2,8.1h1.1v1.7c0,3.1-4.2,7.4-9.5,2.6l-0.1,2.5
			c2.9,2.1,6.9,1.7,7.8,1.4c3.3-0.8,6-3.1,6-7.4c0-0.2,0,0.3,0-18.3l-0.1-0.1h-7.7V34z M137.4,50.3h-2.5c-0.8,0-1.2-0.1-1.9-0.2
			c-0.7-0.1-2.8-1-2.8-4.4v-5.3c0-3.6,2-4.9,3.8-4.9h3.4V50.3z"/>
		<path class="st1" d="M121.8,25.2c-1.2,0-2.1,1-2.1,2.1c0,1.2,1,2.1,2.1,2.1c1.2,0,2.1-0.9,2.1-2.1C123.9,26.2,123,25.2,121.8,25.2
			z"/>
		<path class="st1" d="M105.7,25.1h-9.9l-0.2,0.2v26.3h10.1c6,0,11.4-3,11.4-11.5v-3.6C117.2,30.1,113.3,25.1,105.7,25.1z M111,42.9
			c0,5.3-4.4,6.7-5.6,6.7h-3.7V27.3h3.7c3.3,0,5.6,2.2,5.6,6.6V42.9z"/>
		<polygon class="st1" points="119.8,34 119.7,34.2 119.7,51.5 119.8,51.7 123.6,51.7 123.7,51.5 123.7,34.2 123.6,34 		"/>
		<polygon class="st1" points="177,34 176.9,34.2 176.9,51.5 177,51.7 180.8,51.7 180.9,51.5 180.9,34.2 180.8,34 		"/>
		<path class="st1" d="M178.6,29.5c1.2,0,2.1-0.9,2.1-2.1s-1-2.1-2.1-2.1c-1.2,0-2.1,1-2.1,2.1C176.4,28.5,177.4,29.5,178.6,29.5z"
			/>
		<path class="st1" d="M191.9,34h-8.3l-0.1,0.1v17.4l0.1,0.1h3.8l0.1-0.1V35.4h2h1c0.8,0,1.4,0,1.8,0.1c2.1,0.6,3.1,1.9,3.1,3.7
			v12.3l0.1,0.1h3.8l0.1-0.1v-9.8C199.5,35.9,195.5,34,191.9,34z"/>
		<polygon class="st1" points="144.3,34 144.2,34.2 144.2,51.5 144.3,51.7 148.1,51.7 148.2,51.5 148.2,34.2 148.1,34 		"/>
		<path class="st1" d="M146.1,25.2c-1.2,0-2.1,1-2.1,2.1c0,1.2,0.9,2.1,2.1,2.1c1.2,0,2.1-0.9,2.1-2.1
			C148.3,26.2,147.3,25.2,146.1,25.2z"/>
		<path class="st1" d="M157.6,39.7c0-0.5,0.3-0.9,0.9-0.8c0.4,0.1,0.6,0.2,0.6,0.2c2,1.1,4,1.5,5.8,1.5c0.9,0,1.8-0.1,2.6-0.3
			c3.3-4.4,6.7-8.9,8.2-10.9l0,0v-0.1c0-0.1-0.1-0.1-0.2-0.1l0,0l0,0c-4,3.4-14.3,10.5-25.8,4.3l0,0h-0.1c-0.1,0-0.1,0.1-0.1,0.2
			c1.2,2.3,7.5,14.8,8.9,17.7c0.1,0.2,0.3,0.3,0.5,0.2c0.1-0.1,0.2-0.2,0.2-0.2c0.5-0.6,1.4-1.8,2.6-3.4c-1.5-3.1-3.4-6.8-3.9-7.8
			C157.8,40.2,157.6,40,157.6,39.7z"/>
		<path class="st1" d="M175.6,37L175.6,37c-2.7,2.2-9.4,6.9-16.9,2.8l0,0c0,0,0,0-0.1,0c0,0-0.1,0.1,0,0.1l0,0
			c0.8,1.5,4.9,9.7,5.8,11.6l0,0c0.1,0.1,0.2,0.2,0.4,0.1c0.1,0,0.1-0.1,0.1-0.1c1.4-1.9,8.7-11.6,10.9-14.4l0,0V37
			C175.7,37,175.7,37,175.6,37z"/>
	</g>
</g>
<g id="英文">
	<g>
		<path d="M241.1,31.1c0-1.8,0.2-2.9,0.5-3.3c0.5-0.8,1.1-1.3,2-1.5c0.6-0.1,1,0,1-0.1l0.4-0.9l-0.1-0.1H244c-1.8,0-6.4,0.1-6.4,8.8
			l0,0h-2.1l-0.1,0.1l-0.3,1l0.1,0.1h2.4v16.3l0.1,0.1h3.3l0.1-0.1V35.2h3.3l0.1-0.1l0.3-1l-0.1-0.1h-3.6l-0.1-2.6v-0.3
			C241,31.1,241.1,31.1,241.1,31.1z M212.6,35.6c-3.8-1.7-5.6-2.9-5.7-4.7c-0.2-2.6,2.4-3.8,4.2-3.8s3.4,0.7,4.4,1.4h0.1l1.2-1.5
			c-1.4-1.1-5.4-2.7-10.4-1.5c-4.8,1.2-7.8,7.1-3.1,11.4c0.9,0.8,2.9,2,6.4,3.4c2.7,1.1,4.1,2.7,4,4.8c-0.2,4.8-6.2,4.6-6.2,4.6
			c-2.5-0.2-4.2-1.4-5.6-2.5l-0.1,2.5c5.1,3.1,10.2,1.8,12.7,0.6c3.5-1.7,4.7-4.7,4.5-7.6C218.9,39.7,216.8,37.7,212.6,35.6z
			 M255.9,50.6c-1.6,0-3.1-0.3-3.7-1c-0.6-0.5-0.9-1.4-0.9-2.9V35.2h5.5l0.1-0.1l0.3-1L257,34h-5.8v-8.9h-0.1l-3.4,3l-0.1,5.8V34
			h-2.1l-0.1,0.1l-0.3,1l0.1,0.1h2.4v9.2c0,1.8,0.3,3.2,0.9,4.1c1.6,2.1,3.5,3.1,5.7,3.1h2.3l0.1-0.1l0.4-0.9l-0.1-0.1L255.9,50.6z
			 M228.1,34c-3.4,0-6.9,1.3-6.9,6c0,2.7,0,3.2,0,5.8c0,4.1,3.5,5.8,6.9,5.8s6.9-2.1,6.9-5.8c0-2.6,0-3.1,0-5.8
			C235,35.3,231.5,34,228.1,34z M231.4,47.5c0,1.9-1.8,3-3.4,3c-1.6,0-3.3-1-3.3-3c0-1,0-8.2,0-9.2c0-2.5,1.8-3.2,3.3-3.2
			c1.6,0,3.4,1,3.4,3.2C231.4,39.3,231.4,46.5,231.4,47.5z"/>
		<path d="M121.8,25.2c-1.2,0-2.1,1-2.1,2.1c0,1.2,1,2.1,2.1,2.1c1.2,0,2.1-0.9,2.1-2.1C123.9,26.2,123,25.2,121.8,25.2z M119.8,34
			L119.8,34l-0.1,17.5l0.1,0.1h3.8l0.1-0.1V34.2l-0.1-0.1h-3.8V34z M105.7,25.1h-9.9l-0.2,0.2v26.3h10.1c6,0,11.4-3,11.4-11.5v-3.6
			C117.2,30.1,113.3,25.1,105.7,25.1z M111,42.9c0,5.3-4.4,6.7-5.6,6.7h-3.7V27.3h3.7c3.3,0,5.6,2.2,5.6,6.6V42.9z M178.6,29.5
			c1.2,0,2.1-0.9,2.1-2.1s-1-2.1-2.1-2.1c-1.2,0-2.1,1-2.1,2.1C176.4,28.5,177.4,29.5,178.6,29.5z M177,34l-0.1,0.1v17.4l0.1,0.1
			h3.8l0.1-0.1V34.2l-0.1-0.1H177V34z M191.9,34h-8.3l-0.1,0.1v17.4l0.1,0.1h3.8l0.1-0.1V35.4h2h1c0.8,0,1.4,0,1.8,0.1
			c2.1,0.6,3.1,1.9,3.1,3.7v12.3l0.1,0.1h3.8l0.1-0.1v-9.8C199.5,35.9,195.5,34,191.9,34z M146.1,25.2c-1.2,0-2.1,1-2.1,2.1
			c0,1.2,0.9,2.1,2.1,2.1c1.2,0,2.1-0.9,2.1-2.1C148.3,26.2,147.3,25.2,146.1,25.2z M144.3,34l-0.1,0.1v17.4l0.1,0.1h3.8l0.1-0.1
			V34.2l-0.1-0.1h-3.8V34z M133.8,34c-3.9,0-7.7,1.7-7.7,7.4v2.2c0,8.2,5.8,8.1,10.2,8.1h1.1v1.7c0,3.1-4.2,7.4-9.5,2.6l-0.1,2.5
			c2.9,2.1,6.9,1.7,7.8,1.4c3.3-0.8,6-3.1,6-7.4c0-0.2,0,0.3,0-18.3l-0.1-0.1h-7.7V34z M137.4,50.3h-2.5c-0.8,0-1.2-0.1-1.9-0.2
			c-0.7-0.1-2.8-1-2.8-4.4v-5.3c0-3.6,2-4.9,3.8-4.9h3.4V50.3z"/>
		<g>
			<path class="st2" d="M158.3,51.5L158.3,51.5L158.3,51.5L158.3,51.5z M175.7,29.3c0-0.1-0.1-0.1-0.2-0.1l0,0l0,0
				c-4,3.4-14.3,10.5-25.8,4.3l0,0h-0.1c-0.1,0-0.1,0.1-0.1,0.2l0,0c1.2,2.3,7.5,14.8,8.9,17.7c0.1,0.2,0.3,0.3,0.5,0.2
				c0.1-0.1,0.2-0.2,0.2-0.2c0.5-0.6,1.4-1.8,2.6-3.4c-1.5-3.1-3.4-6.8-3.9-7.8c0,0-0.1-0.2-0.1-0.5c0-0.5,0.3-0.9,0.9-0.8
				c0.4,0.1,0.6,0.2,0.6,0.2c2,1.1,4,1.5,5.8,1.5c0.9,0,1.8-0.1,2.6-0.3c3.3-4.4,6.7-8.9,8.2-10.9l0,0
				C175.7,29.4,175.7,29.4,175.7,29.3z"/>
			<path class="st2" d="M175.7,37.1c-2.1,2.8-9.5,12.6-10.9,14.4l-0.1,0.1c-0.1,0.1-0.3,0-0.4-0.1l0,0c-0.9-1.9-5.1-10.1-5.8-11.6
				l0,0v-0.1h0.1l0,0c7.6,4.1,14.3-0.6,16.9-2.8l0,0l0,0C175.7,37,175.7,37,175.7,37.1L175.7,37.1L175.7,37.1z"/>
		</g>
	</g>
</g>
<g id="圖層_5">
	<g>
		<path class="st1" d="M68.8,5.2L50.2,31.9l-6.1,0.5c-4.6,0-8.9-1.3-13-3.8l-1.2-0.3c-1.3-0.2-2,0.5-2,2l0.3,1.2l8.7,18.9l-5.8,8.4
			l-0.3,0.3c-0.8,0.4-1.2,0.3-1.2-0.3l-20.3-43l0.3-0.3h0.3C21.3,22,33.1,23.2,45.4,19c7.7-2.7,15.2-7.3,22.6-13.9h0.3
			c0-0.2,0.1-0.2,0.3,0L68.8,5.2"/>
		<path class="st1" d="M68.8,23.8L44.2,59.1l-0.3,0.3L43,58.8v0.3L30,30.7v-0.3h0.3c12.1,6.9,24.8,4.7,38.1-6.6v-0.3L68.8,23.8"/>
	</g>
</g>
<g id="圖層_4">
	<g>
		<path class="st3" d="M68.8,5.2L50.2,31.9l-6.1,0.5c-4.6,0-8.9-1.3-13-3.8l-1.2-0.3c-1.3-0.2-2,0.5-2,2l0.3,1.2l8.7,18.9l-5.8,8.4
			l-0.3,0.3c-0.8,0.4-1.2,0.3-1.2-0.3l-20.3-43l0.3-0.3h0.3C21.3,22,33.1,23.2,45.4,19c7.7-2.7,15.2-7.3,22.6-13.9h0.3
			c0-0.2,0.1-0.2,0.3,0L68.8,5.2"/>
		<path class="st3" d="M68.8,23.8L44.2,59.1l-0.3,0.3L43,58.8v0.3L30,30.7v-0.3h0.3c12.1,6.9,24.8,4.7,38.1-6.6v-0.3L68.8,23.8"/>
	</g>
</g>
</svg>
